:SAMPLES-PER-SECOND 30
:FULLY-SPECIFIED
:DEGREES
518
root  1.67349 41.005 -3.06277 -163.863 -86.8869 163.911
RightUpLeg  0.928045 -8.34067 -5.49963
RightLeg  4.6277 -6.16735 3.3188
RightFoot  -3.52243 0.0204416 -0.721813
RightToes  0.00048216 0.542163 -0.142577
Spine  5.08571 0.178656 -0.454391
Spine1  -1.0148 0.151275 0.487906
HEad  -10.7779 -11.103 0.674304
LeftShoulder1  0.313495 -0.17727 -0.0277586
LeftArm  -19.9984 12.2863 -12.4177
LeftForeArm  7.0989 -0.5047 -0.62239
LeftHand  -0.25398 0.0180481 5.50724
RightShoulder  0.619755 1.37011 4.88476
RightArm  -17.2555 -4.29794 0.323639
RightForeArm  -2.08609 2.1808 3.82661
RightHand  -3.18455 9.48748 -24.9121
LeftUpLeg  2.26295 3.26254 1.01244
LeftLeg  1.2026 5.90393 -3.08533
LeftFoot  -3.11135 -0.0650764 1.30719
LeftToes  1.06243e-005 4.65856e-005 -8.18503e-006
519
root  1.61732 41.0079 -3.11526 -163.863 -86.915 163.964
RightUpLeg  1.01151 -8.30434 -5.40693
RightLeg  4.53382 -6.23407 3.33236
RightFoot  -3.49975 0.0318363 -0.89885
RightToes  0.00048216 0.542163 -0.142577
Spine  4.70239 0.177981 -0.549579
Spine1  -0.914084 0.155333 0.474812
HEad  -10.4831 -11.3143 1.00468
LeftShoulder1  0.314128 -0.120733 -0.196386
LeftArm  -19.7031 13.0331 -12.0908
LeftForeArm  6.11313 -0.611187 -0.695
LeftHand  -0.25398 0.0180481 5.50724
RightShoulder  0.581193 1.11694 4.72681
RightArm  -17.7776 -4.63829 0.200562
RightForeArm  -4.12867 1.6323 3.6981
RightHand  -3.06285 9.02009 -24.7391
LeftUpLeg  2.34633 3.23325 1.0694
LeftLeg  1.09875 5.878 -3.01865
LeftFoot  -3.1163 -0.0547085 1.14602
LeftToes  1.06243e-005 4.65856e-005 -8.18503e-006
520
root  1.5598 41.0092 -3.15876 -163.554 -86.9276 163.626
RightUpLeg  1.15679 -8.30883 -5.37534
RightLeg  4.50543 -6.22789 3.35071
RightFoot  -3.52435 0.0435495 -1.08087
RightToes  0.00048216 0.542163 -0.142577
Spine  4.38011 0.19539 -0.541117
Spine1  -0.847344 0.210552 0.294979
HEad  -9.96446 -11.5757 1.3209
LeftShoulder1  0.308028 -0.0847896 -0.101783
LeftArm  -19.9893 13.6582 -11.9188
LeftForeArm  5.7038 -0.888116 -0.551494
LeftHand  -0.25398 0.0180481 5.50724
RightShoulder  0.524863 0.763849 4.40958
RightArm  -18.4401 -4.97818 0.243318
RightForeArm  -5.59302 1.28355 3.51038
RightHand  -2.91248 8.52933 -24.3683
LeftUpLeg  2.52117 3.19459 1.08208
LeftLeg  0.994139 5.91187 -2.95371
LeftFoot  -3.13136 -0.0518995 1.10236
LeftToes  1.06243e-005 4.65856e-005 -8.18503e-006
521
root  1.51232 41.0078 -3.19712 -163.247 -86.9508 163.234
RightUpLeg  1.32915 -8.32376 -5.36179
RightLeg  4.51127 -6.24347 3.36424
RightFoot  -3.59307 0.0498406 -1.17864
RightToes  0.00048216 0.542163 -0.142577
Spine  4.14764 0.169794 -0.518884
Spine1  -0.818195 0.227483 0.0838665
HEad  -9.22346 -11.7082 1.46217
LeftShoulder1  0.29691 -0.000546202 0.0254669
LeftArm  -20.3608 14.0857 -11.6896
LeftForeArm  5.68917 -1.23351 -0.391164
LeftHand  -0.25398 0.0180481 5.50724
RightShoulder  0.470037 0.409637 4.08537
RightArm  -19.0455 -5.15948 0.393498
RightForeArm  -6.95708 1.09655 3.36482
RightHand  -2.82663 8.14409 -24.3207
LeftUpLeg  2.66429 3.18028 1.09847
LeftLeg  1.03902 5.91419 -2.89238
LeftFoot  -3.18199 -0.055017 1.15082
LeftToes  1.06243e-005 4.65856e-005 -8.18503e-006
522
root  1.47258 41.0042 -3.23299 -163.095 -86.9737 163
RightUpLeg  1.47389 -8.32716 -5.33801
RightLeg  4.54442 -6.27573 3.36253
RightFoot  -3.68472 0.0510776 -1.19787
RightToes  0.00048216 0.542163 -0.142577
Spine  3.88924 0.0980456 -0.543263
Spine1  -0.746864 0.185821 -0.0634813
HEad  -8.46704 -11.7068 1.47841
LeftShoulder1  0.284571 0.14386 0.0332515
LeftArm  -20.3249 14.3142 -11.3087
LeftForeArm  5.02543 -1.72862 -0.471652
LeftHand  -0.25398 0.0180481 5.50724
RightShoulder  0.438641 0.189912 3.9311
RightArm  -19.3096 -5.14418 0.457024
RightForeArm  -8.43603 1.01101 3.3658
RightHand  -2.79515 7.8424 -24.5797
LeftUpLeg  2.75166 3.2114 1.14912
LeftLeg  1.16922 5.84715 -2.86568
LeftFoot  -3.26609 -0.0572976 1.18627
LeftToes  1.06243e-005 4.65856e-005 -8.18503e-006
523
root  1.43666 40.9999 -3.26525 -163.435 -86.945 163.269
RightUpLeg  1.59034 -8.31432 -5.30216
RightLeg  4.59767 -6.24328 3.35332
RightFoot  -3.78264 0.0506953 -1.19193
RightToes  0.00048216 0.542163 -0.142577
Spine  3.53698 0.0396313 -0.584325
Spine1  -0.55089 0.146004 -0.146184
HEad  -7.92626 -11.6583 1.48769
LeftShoulder1  0.27173 0.319362 -0.031652
LeftArm  -20.1111 14.37 -10.9705
LeftForeArm  3.63229 -2.21998 -0.676833
LeftHand  -0.25398 0.0180481 5.50724
RightShoulder  0.429868 0.115839 3.93052
RightArm  -19.2781 -5.03498 0.419359
RightForeArm  -9.0301 1.08462 3.44316
RightHand  -2.772 7.7185 -24.6036
LeftUpLeg  2.85195 3.2799 1.22644
LeftLeg  1.25855 5.79388 -2.87891
LeftFoot  -3.35148 -0.0579766 1.19682
LeftToes  1.06243e-005 4.65856e-005 -8.18503e-006
524
root  1.40762 40.9965 -3.29099 -164.391 -86.8299 164.142
RightUpLeg  1.7024 -8.29189 -5.2669
RightLeg  4.63279 -6.12017 3.35022
RightFoot  -3.86875 0.0512261 -1.20018
RightToes  0.00048216 0.542163 -0.142577
Spine  3.15269 0.0357203 -0.61775
Spine1  -0.259427 0.151472 -0.179721
HEad  -7.61488 -11.6233 1.48534
LeftShoulder1  0.260713 0.465923 -0.0807423
LeftArm  -20.1458 14.3251 -10.7925
LeftForeArm  2.83016 -2.39273 -0.718327
LeftHand  -0.25398 0.0180481 5.50724
RightShoulder  0.432218 0.122106 3.98045
RightArm  -19.2253 -4.91868 0.385822
RightForeArm  -8.23584 1.34372 3.4723
RightHand  -2.77785 7.91937 -24.3022
LeftUpLeg  2.98845 3.35221 1.29996
LeftLeg  1.29545 5.83963 -2.89785
LeftFoot  -3.41586 -0.05842 1.20371
LeftToes  1.06243e-005 4.65856e-005 -8.18503e-006
